<svg xmlns="http://www.w3.org/2000/svg" viewBox="0 0 960 600" fill="none">
  <defs>
    <linearGradient id="ml-bg" x1="0" y1="0" x2="960" y2="600" gradientUnits="userSpaceOnUse">
      <stop stop-color="#141820"/>
      <stop offset="1" stop-color="#221a24"/>
    </linearGradient>
    <linearGradient id="ml-rose" x1="0" y1="0" x2="1" y2="1">
      <stop stop-color="#e7c1b1"/>
      <stop offset="1" stop-color="#c49a88"/>
    </linearGradient>
    <linearGradient id="ml-chart" x1="0" y1="1" x2="0" y2="0">
      <stop stop-color="#e7c1b1" stop-opacity="0.15"/>
      <stop offset="1" stop-color="#e7c1b1" stop-opacity="0.75"/>
    </linearGradient>
  </defs>
  <rect width="960" height="600" fill="url(#ml-bg)"/>
  <circle cx="820" cy="480" r="110" fill="#b8c3ff" fill-opacity="0.06"/>
  <circle cx="120" cy="100" r="80" fill="#e7c1b1" fill-opacity="0.08"/>

  <rect x="70" y="70" width="820" height="460" rx="28" fill="#ffffff" fill-opacity="0.04" stroke="#e7c1b1" stroke-opacity="0.22"/>
  <rect x="100" y="100" width="240" height="36" rx="18" fill="url(#ml-rose)" fill-opacity="0.9"/>
  <text x="220" y="123" text-anchor="middle" fill="#1a1412" font-family="Inter,Arial,sans-serif" font-size="14" font-weight="700">HR Analytics ť ML</text>

  <rect x="120" y="380" width="48" height="90" rx="8" fill="url(#ml-chart)"/>
  <rect x="190" y="330" width="48" height="140" rx="8" fill="url(#ml-chart)"/>
  <rect x="260" y="290" width="48" height="180" rx="8" fill="url(#ml-chart)"/>
  <rect x="330" y="250" width="48" height="220" rx="8" fill="#c49a88" fill-opacity="0.75"/>
  <rect x="400" y="310" width="48" height="160" rx="8" fill="url(#ml-chart)"/>
  <line x1="100" y1="470" x2="480" y2="470" stroke="#ffffff" stroke-opacity="0.15"/>

  <polyline points="520,380 580,340 640,360 700,280 760,300 820,220" stroke="#e7c1b1" stroke-width="4" fill="none" stroke-linecap="round" stroke-linejoin="round"/>
  <circle cx="820" cy="220" r="8" fill="#e7c1b1"/>
  <circle cx="700" cy="280" r="6" fill="#c49a88"/>
  <circle cx="580" cy="340" r="6" fill="#c49a88"/>

  <rect x="520" y="120" width="160" height="90" rx="16" fill="#ffffff" fill-opacity="0.05" stroke="#ffffff" stroke-opacity="0.08"/>
  <text x="540" y="150" fill="#e7c1b1" font-family="Inter,Arial,sans-serif" font-size="12">Accuracy</text>
  <text x="540" y="185" fill="#ffffff" font-family="Inter,Arial,sans-serif" font-size="28" font-weight="700">92%</text>

  <rect x="700" y="120" width="160" height="90" rx="16" fill="#ffffff" fill-opacity="0.05" stroke="#ffffff" stroke-opacity="0.08"/>
  <text x="720" y="150" fill="#e7c1b1" font-family="Inter,Arial,sans-serif" font-size="12">Dataset</text>
  <text x="720" y="185" fill="#ffffff" font-family="Inter,Arial,sans-serif" font-size="28" font-weight="700">HR</text>

  <rect x="520" y="410" width="340" height="90" rx="16" fill="#ffffff" fill-opacity="0.04" stroke="#e7c1b1" stroke-opacity="0.18"/>
  <text x="540" y="445" fill="#ffffff" fill-opacity="0.8" font-family="ui-monospace,monospace" font-size="13">Python ť Pandas ť Jupyter</text>
  <text x="540" y="472" fill="#c49a88" font-family="ui-monospace,monospace" font-size="12">EDA ť Modelos predictivos</text>
</svg>
